# xmcd
#
# Track frame offsets:
#	150
#	20538
#	43367
#	65964
#	84639
#	106689
#	123781
#	141481
#	157855
#	181737
#	201312
#	222012
#	245487
#	261804
#	280179
#
# Disc length: 3994 seconds
#
# Revision: 1
# Processed by: cddbd v1.5.2PL0 Copyright (c) Steve Scherf et al.
# Submitted via: audiograbber 1.83.01
#
DISCID=da0f980f
DTITLE=Hülya Polat - Pusula
DYEAR=2009
DGENRE=Karadeniz
TTITLE0=Vur Davula
TTITLE1=Sen Ayrida ben Ayri
TTITLE2=Ay Vuruyor
TTITLE3=Cikardim Sigirlari
TTITLE4=Yar Uyanik
TTITLE5=Sakin Gelme
TTITLE6=Yaylanin Kukuvani
TTITLE7=Kizlarin Krali
TTITLE8=Ikbalim
TTITLE9=Elif Dedum
TTITLE10=Yuregum Pazarda Kaldi
TTITLE11=Destan ( Asker Türküsü )
TTITLE12=Benmi Dedim
TTITLE13=Nerden Gördüm
TTITLE14=Vur Davula ( 2. Version )
EXTD=
EXTT0=
EXTT1=
EXTT2=
EXTT3=
EXTT4=
EXTT5=
EXTT6=
EXTT7=
EXTT8=
EXTT9=
EXTT10=
EXTT11=
EXTT12=
EXTT13=
EXTT14=
PLAYORDER=
